<svg
    version="1.1"
    id="Layer_1"
    xmlns="http://www.w3.org/2000/svg"
    xmlns:xlink="http://www.w3.org/1999/xlink"
    x="0px"
    y="0px"
    width="100%"
    viewBox="0 0 500 500"
    enable-background="new 0 0 500 500"
    xml:space="preserve"
    aria-hidden="true"
    {...props}
  >
    <path
      fill="#000000"
      opacity="1.000000"
      stroke="none"
      d="
M280.000000,501.000000 
	C186.666687,501.000000 93.833374,501.000000 1.000050,501.000000 
	C1.000033,334.333405 1.000033,167.666794 1.000017,1.000139 
	C167.666565,1.000093 334.333130,1.000093 500.999756,1.000046 
	C500.999847,167.666519 500.999847,334.333038 500.999939,500.999786 
	C427.500000,501.000000 354.000000,501.000000 280.000000,501.000000 
M185.906219,267.712280 
	C211.328918,278.476288 237.783218,264.423004 241.498596,237.654968 
	C242.678131,229.156662 241.899979,220.382782 241.962860,211.734589 
	C242.010864,205.133072 241.972382,198.530930 241.972382,192.025665 
	C215.667831,192.025665 189.956070,192.025665 163.925613,192.025665 
	C163.925613,205.572495 163.825531,218.854721 163.951462,232.134811 
	C164.102112,248.020859 171.391159,259.690765 185.906219,267.712280 
M119.423065,188.995590 
	C95.461342,189.248505 77.082718,207.233978 77.236832,230.279373 
	C77.389290,253.074829 95.730965,270.918854 119.377708,271.174438 
	C129.194687,271.280518 139.013748,271.193237 148.831863,271.193756 
	C152.221710,271.193939 155.611557,271.193817 159.001404,271.193817 
	C159.312820,270.640594 159.624237,270.087402 159.935638,269.534180 
	C158.580078,268.631744 157.055237,267.906036 155.897537,266.797058 
	C150.129852,261.272064 144.413071,255.691330 138.806183,250.004181 
	C138.026520,249.213364 137.956009,247.723373 137.557236,246.557037 
	C138.193481,246.212692 138.829727,245.868362 139.465973,245.524017 
	C142.769852,249.187180 146.073730,252.850327 149.735535,256.910339 
	C160.031799,243.422134 162.648331,229.440842 156.498962,214.605957 
	C149.935150,198.771255 137.529129,190.302902 119.423065,188.995590 
M295.208405,202.534790 
	C295.208405,224.945572 295.208405,247.356369 295.208405,269.804321 
	C315.757660,269.804321 335.677612,269.804321 355.638062,269.804321 
	C355.638062,256.753204 355.638062,243.903564 355.638062,230.704437 
	C348.360901,230.704437 341.445465,230.704437 334.116425,230.704437 
	C334.116425,217.621124 334.116425,204.890564 334.116425,192.303619 
	C320.947388,192.303619 308.211884,192.303619 295.208405,192.303619 
	C295.208405,195.604507 295.208405,198.577377 295.208405,202.534790 
M362.194916,247.499863 
	C362.194916,254.929688 362.194916,262.359497 362.194916,269.814453 
	C382.754669,269.814453 402.678619,269.814453 422.651245,269.814453 
	C422.651245,256.760895 422.651245,243.907990 422.651245,230.701996 
	C415.377136,230.701996 408.460815,230.701996 401.125610,230.701996 
	C401.125610,217.614243 401.125610,204.881699 401.125610,192.291306 
	C387.948425,192.291306 375.209320,192.291306 362.194916,192.291306 
	C362.194916,210.578964 362.194916,228.539413 362.194916,247.499863 
M288.909485,202.526840 
	C288.909485,199.089737 288.909485,195.652634 288.909485,192.190674 
	C275.070038,192.190674 261.816406,192.190674 248.343994,192.190674 
	C248.343994,218.125076 248.343994,243.839981 248.343994,269.695496 
	C261.921539,269.695496 275.290009,269.695496 288.909485,269.695496 
	C288.909485,247.432129 288.909485,225.476471 288.909485,202.526840 
z"
    />
    <path
      fill="#FEF9F2"
      opacity="1.000000"
      stroke="none"
      d="
M185.588409,267.511963 
	C171.391159,259.690765 164.102112,248.020859 163.951462,232.134811 
	C163.825531,218.854721 163.925613,205.572495 163.925613,192.025665 
	C189.956070,192.025665 215.667831,192.025665 241.972382,192.025665 
	C241.972382,198.530930 242.010864,205.133072 241.962860,211.734589 
	C241.899979,220.382782 242.678131,229.156662 241.498596,237.654968 
	C237.783218,264.423004 211.328918,278.476288 185.588409,267.511963 
z"
    />
    <path
      fill="#FDF8F1"
      opacity="1.000000"
      stroke="none"
      d="
M119.886337,189.007629 
	C137.529129,190.302902 149.935150,198.771255 156.498962,214.605957 
	C162.648331,229.440842 160.031799,243.422134 149.735535,256.910339 
	C146.073730,252.850327 142.769852,249.187180 139.465973,245.524017 
	C138.829727,245.868362 138.193481,246.212692 137.557236,246.557037 
	C137.956009,247.723373 138.026520,249.213364 138.806183,250.004181 
	C144.413071,255.691330 150.129852,261.272064 155.897537,266.797058 
	C157.055237,267.906036 158.580078,268.631744 159.935638,269.534180 
	C159.624237,270.087402 159.312820,270.640594 159.001404,271.193817 
	C155.611557,271.193817 152.221710,271.193939 148.831863,271.193756 
	C139.013748,271.193237 129.194687,271.280518 119.377708,271.174438 
	C95.730965,270.918854 77.389290,253.074829 77.236832,230.279373 
	C77.082718,207.233978 95.461342,189.248505 119.886337,189.007629 
z"
    />
    <path
      fill="#FDF8F2"
      opacity="1.000000"
      stroke="none"
      d="
M295.208405,202.042511 
	C295.208405,198.577377 295.208405,195.604507 295.208405,192.303619 
	C308.211884,192.303619 320.947388,192.303619 334.116425,192.303619 
	C334.116425,204.890564 334.116425,217.621124 334.116425,230.704437 
	C341.445465,230.704437 348.360901,230.704437 355.638062,230.704437 
	C355.638062,243.903564 355.638062,256.753204 355.638062,269.804321 
	C335.677612,269.804321 315.757660,269.804321 295.208405,269.804321 
	C295.208405,247.356369 295.208405,224.945572 295.208405,202.042511 
z"
    />
    <path
      fill="#F9F4ED"
      opacity="1.000000"
      stroke="none"
      d="
M362.194916,246.999863 
	C362.194916,228.539413 362.194916,210.578964 362.194916,192.291306 
	C375.209320,192.291306 387.948425,192.291306 401.125610,192.291306 
	C401.125610,204.881699 401.125610,217.614243 401.125610,230.701996 
	C408.460815,230.701996 415.377136,230.701996 422.651245,230.701996 
	C422.651245,243.907990 422.651245,256.760895 422.651245,269.814453 
	C402.678619,269.814453 382.754669,269.814453 362.194916,269.814453 
	C362.194916,262.359497 362.194916,254.929688 362.194916,246.999863 
M388.969177,266.023529 
	C388.969177,266.023529 388.937775,266.078186 389.109711,266.785217 
	C390.418091,266.530914 391.726501,266.276611 393.598633,265.825806 
	C394.061279,265.550171 394.523895,265.274536 394.667816,265.772308 
	C396.237946,265.841644 397.808075,265.910980 399.866241,265.822998 
	C400.906189,266.191376 401.946106,266.559723 402.986084,266.928101 
	C403.318054,265.614319 403.650024,264.300537 404.263000,262.882996 
	C404.180084,262.928131 404.097168,262.973236 403.260315,263.038849 
	C402.758301,263.067688 402.256287,263.096527 401.279083,262.924347 
	C400.892059,262.637268 400.505035,262.350220 399.618927,261.847748 
	C398.747314,262.094757 397.875732,262.341797 396.367493,262.411346 
	C395.101776,262.267853 393.836090,262.124359 391.890320,261.375427 
	C391.235504,261.757019 390.580688,262.138580 389.652405,262.425476 
	C389.418762,262.495178 389.335175,262.647125 388.597656,262.416992 
	C388.701965,263.626953 388.806305,264.836945 388.969177,266.023529 
M385.824493,252.799515 
	C386.113922,252.038300 386.403381,251.277084 386.692810,250.515884 
	C386.039520,250.596603 385.386200,250.677322 384.032715,250.686722 
	C383.100800,251.534698 382.168884,252.382690 381.236969,253.230667 
	C381.469208,253.561310 381.701447,253.891968 381.933655,254.222626 
	C382.970367,253.687485 384.007080,253.152344 385.824493,252.799515 
M389.422943,255.075745 
	C390.840118,254.831635 392.257294,254.587524 393.674469,254.343399 
	C393.623840,253.996033 393.573242,253.648666 393.522644,253.301300 
	C392.115540,253.188522 390.708435,253.075760 389.434631,252.093948 
	C389.232025,250.584656 389.029388,249.075378 388.826782,247.566101 
	C388.451233,247.615982 388.075684,247.665878 387.700134,247.715759 
	C388.077759,250.112579 388.455414,252.509415 389.422943,255.075745 
M414.205933,251.118683 
	C413.269470,251.092941 412.333008,251.067215 411.396545,251.041473 
	C411.419281,251.618439 411.442017,252.195389 411.464752,252.772339 
	C412.477661,252.429871 413.490570,252.087418 414.205933,251.118683 
M401.721588,250.569427 
	C402.307587,250.590332 402.896820,250.647217 403.476135,250.594727 
	C403.566437,250.586548 403.611603,250.079865 403.677673,249.803711 
	C403.109344,249.903870 402.541046,250.004028 401.721588,250.569427 
z"
    />
    <path
      fill="#FDF8F1"
      opacity="1.000000"
      stroke="none"
      d="
M288.909485,203.023819 
	C288.909485,225.476471 288.909485,247.432129 288.909485,269.695496 
	C275.290009,269.695496 261.921539,269.695496 248.343994,269.695496 
	C248.343994,243.839981 248.343994,218.125076 248.343994,192.190674 
	C261.816406,192.190674 275.070038,192.190674 288.909485,192.190674 
	C288.909485,195.652634 288.909485,199.089737 288.909485,203.023819 
z"
    />
    <path
      fill="#AFABA7"
      opacity="1.000000"
      stroke="none"
      d="
M392.570374,261.980865 
	C393.836090,262.124359 395.101776,262.267853 396.719788,262.710510 
	C397.072052,263.009705 396.976837,263.423584 396.961792,263.902527 
	C397.165802,264.613800 397.384827,264.846161 397.214508,265.380310 
	C396.212311,265.454376 395.599396,265.226624 394.986511,264.998901 
	C394.523895,265.274536 394.061279,265.550171 393.199524,265.600922 
	C391.512878,265.610107 390.225311,265.844147 388.937775,266.078186 
	C388.937775,266.078186 388.969177,266.023529 389.213867,265.706390 
	C389.439606,264.553284 389.420654,263.717285 389.401733,262.881317 
	C389.335175,262.647125 389.418762,262.495178 390.215942,262.305725 
	C391.376434,262.117615 391.973419,262.049225 392.570374,261.980865 
z"
    />
    <path
      fill="#D5D1CB"
      opacity="1.000000"
      stroke="none"
      d="
M396.976837,263.423584 
	C396.976837,263.423584 397.072052,263.009705 397.038086,262.799255 
	C397.875732,262.341797 398.747314,262.094757 399.809845,262.256897 
	C400.295441,263.065338 400.590118,263.464600 400.884827,263.863831 
	C401.174622,263.617676 401.464447,263.371521 401.754272,263.125366 
	C402.256287,263.096527 402.758301,263.067688 403.630157,263.019745 
	C404.000000,263.000641 403.981995,262.986725 403.981995,262.986725 
	C403.650024,264.300537 403.318054,265.614319 402.986084,266.928101 
	C401.946106,266.559723 400.906189,266.191376 399.477844,265.816284 
	C399.089417,265.809601 398.814026,266.001251 398.919464,265.653809 
	C398.342224,264.678772 397.659515,264.051178 396.976837,263.423584 
z"
    />
    <path
      fill="#D5D1CB"
      opacity="1.000000"
      stroke="none"
      d="
M389.301331,252.962982 
	C390.708435,253.075760 392.115540,253.188522 393.522644,253.301300 
	C393.573242,253.648666 393.623840,253.996033 393.674469,254.343399 
	C392.257294,254.587524 390.840118,254.831635 389.168488,254.652527 
	C389.043121,253.807220 389.172241,253.385101 389.301331,252.962982 
z"
    />
    <path
      fill="#85827E"
      opacity="1.000000"
      stroke="none"
      d="
M385.043793,252.617188 
	C384.007080,253.152344 382.970367,253.687485 381.933655,254.222626 
	C381.701447,253.891968 381.469208,253.561310 381.236969,253.230667 
	C382.168884,252.382690 383.100800,251.534698 384.480835,251.183777 
	C384.967224,251.992950 385.005493,252.305054 385.043793,252.617188 
z"
    />
    <path
      fill="#000000"
      opacity="1.000000"
      stroke="none"
      d="
M389.367981,252.528473 
	C389.172241,253.385101 389.043121,253.807220 388.873535,254.567780 
	C388.455414,252.509415 388.077759,250.112579 387.700134,247.715759 
	C388.075684,247.665878 388.451233,247.615982 388.826782,247.566101 
	C389.029388,249.075378 389.232025,250.584656 389.367981,252.528473 
z"
    />
    <path
      fill="#85827E"
      opacity="1.000000"
      stroke="none"
      d="
M414.354736,251.431824 
	C413.490570,252.087418 412.477661,252.429871 411.464752,252.772339 
	C411.442017,252.195389 411.419281,251.618439 411.396545,251.041473 
	C412.333008,251.067215 413.269470,251.092941 414.354736,251.431824 
z"
    />
    <path
      fill="#444241"
      opacity="1.000000"
      stroke="none"
      d="
M394.827148,265.385620 
	C395.599396,265.226624 396.212311,265.454376 397.404175,265.430237 
	C398.260132,265.452637 398.537079,265.726929 398.814026,266.001251 
	C398.814026,266.001251 399.089417,265.809601 399.233826,265.894958 
	C397.808075,265.910980 396.237946,265.841644 394.827148,265.385620 
z"
    />
    <path
      fill="#444241"
      opacity="1.000000"
      stroke="none"
      d="
M389.023743,266.431702 
	C390.225311,265.844147 391.512878,265.610107 392.917664,265.699158 
	C391.726501,266.276611 390.418091,266.530914 389.023743,266.431702 
z"
    />
    <path
      fill="#D5D1CB"
      opacity="1.000000"
      stroke="none"
      d="
M401.847168,250.336807 
	C402.541046,250.004028 403.109344,249.903870 403.677673,249.803711 
	C403.611603,250.079865 403.566437,250.586548 403.476135,250.594727 
	C402.896820,250.647217 402.307587,250.590332 401.847168,250.336807 
z"
    />
    <path
      fill="#444241"
      opacity="1.000000"
      stroke="none"
      d="
M385.434143,252.708344 
	C385.005493,252.305054 384.967224,251.992950 384.830933,251.219437 
	C385.386200,250.677322 386.039520,250.596603 386.692810,250.515869 
	C386.403381,251.277084 386.113922,252.038300 385.434143,252.708344 
z"
    />
    <path
      fill="#000000"
      opacity="1.000000"
      stroke="none"
      d="
M401.516663,263.024841 
	C401.464447,263.371521 401.174622,263.617676 400.884827,263.863831 
	C400.590118,263.464600 400.295441,263.065338 400.059387,262.364624 
	C400.505035,262.350220 400.892059,262.637268 401.516663,263.024841 
z"
    />
    <path
      fill="#444241"
      opacity="1.000000"
      stroke="none"
      d="
M388.999695,262.649170 
	C389.420654,263.717285 389.439606,264.553284 389.184601,265.718079 
	C388.806305,264.836945 388.701965,263.626953 388.999695,262.649170 
z"
    />
    <path
      fill="#444241"
      opacity="1.000000"
      stroke="none"
      d="
M392.230347,261.678162 
	C391.973419,262.049225 391.376434,262.117615 390.352661,262.353058 
	C390.580688,262.138580 391.235504,261.757019 392.230347,261.678162 
z"
    />
    <path
      fill="#D5D1CB"
      opacity="1.000000"
      stroke="none"
      d="
M404.007141,263.009521 
	C404.097168,262.973236 404.180084,262.928131 404.122498,262.934875 
	C403.981995,262.986725 404.000000,263.000641 404.007141,263.009521 
z"
    />
    <path
      fill="#000000"
      opacity="1.000000"
      stroke="none"
      d="
M398.919464,265.653809 
	C398.537079,265.726929 398.260132,265.452637 397.793488,265.128418 
	C397.384827,264.846161 397.165802,264.613800 396.961792,263.902527 
	C397.659515,264.051178 398.342224,264.678772 398.919464,265.653809 
z"
    />
  </svg>