<svg version="1.1" id="Layer_1" xmlns="http://www.w3.org/2000/svg" xmlns:xlink="http://www.w3.org/1999/xlink" x="0px" y="0px"
	 width="100%" viewBox="0 0 500 500" enable-background="new 0 0 500 500" xml:space="preserve">
<path fill="#121A21" opacity="1.000000" stroke="none" 
	d="
M279.000000,501.000000 
	C186.000015,501.000000 93.500046,501.000000 1.000050,501.000000 
	C1.000033,334.333405 1.000033,167.666794 1.000017,1.000139 
	C167.666565,1.000093 334.333130,1.000093 500.999756,1.000046 
	C500.999847,167.666519 500.999847,334.333038 500.999939,500.999786 
	C427.166656,501.000000 353.333344,501.000000 279.000000,501.000000 
M163.921051,215.500000 
	C163.933640,221.493866 163.835846,227.490372 163.978882,233.481125 
	C164.464432,253.816879 179.664398,269.631744 200.417389,271.498230 
	C219.431610,273.208344 238.554520,259.440674 240.816452,239.894760 
	C242.634186,224.187225 241.184204,208.101547 241.184204,191.968826 
	C215.812256,191.968826 190.097855,191.968826 163.921066,191.968826 
	C163.921066,199.603912 163.921066,207.051971 163.921051,215.500000 
M123.080734,189.133377 
	C117.485626,189.693375 111.651352,189.426254 106.338501,190.962448 
	C87.477501,196.416016 75.085938,215.434357 77.524216,234.194016 
	C80.253677,255.193954 96.391838,270.499603 116.900719,271.060577 
	C129.720551,271.411224 142.556595,271.178711 155.385361,271.176605 
	C156.599716,271.176392 157.814056,270.951874 159.604416,270.774384 
	C158.620346,269.655212 158.133026,269.024597 157.569427,268.471741 
	C151.384689,262.404846 145.144791,256.393036 139.047943,250.239319 
	C138.260605,249.444641 138.197266,247.932678 137.798553,246.752960 
	C138.980713,247.187607 140.471466,247.308853 141.288986,248.113800 
	C144.090820,250.872604 146.656540,253.871201 149.364883,256.835938 
	C157.277374,247.399551 160.647232,236.681244 159.440201,226.347488 
	C157.131363,206.580780 144.663162,193.536530 123.080734,189.133377 
M295.209930,266.251099 
	C294.629913,269.441437 296.128937,270.089600 299.093170,270.066650 
	C316.067993,269.935028 333.044373,270.002686 350.020203,270.002716 
	C351.946320,270.002716 353.872437,270.002716 355.702789,270.002716 
	C355.702789,256.662537 355.702789,243.937653 355.702789,230.867752 
	C348.469147,230.867752 341.526917,230.867752 334.221191,230.867752 
	C334.221191,217.754913 334.221191,204.988831 334.221191,192.244720 
	C321.096375,192.244720 308.350922,192.244720 295.209839,192.244720 
	C295.209839,216.776001 295.209839,241.036880 295.209930,266.251099 
M387.491089,191.972122 
	C379.215729,191.972122 370.940369,191.972122 362.441589,191.972122 
	C362.441589,218.141449 362.441589,243.841049 362.441589,269.722229 
	C382.694885,269.722229 402.715668,269.722229 422.730835,269.722229 
	C422.730835,256.717041 422.730835,243.994308 422.730835,230.916077 
	C415.530975,230.916077 408.593933,230.916077 401.293457,230.916077 
	C401.293457,217.794662 401.293457,205.027252 401.293457,191.972122 
	C396.778015,191.972122 392.631714,191.972122 387.491089,191.972122 
M288.909119,205.509766 
	C288.909119,201.081131 288.909119,196.652496 288.909119,192.207245 
	C275.049042,192.207245 261.802795,192.207245 248.350494,192.207245 
	C248.350494,218.148407 248.350494,243.852859 248.350494,269.679413 
	C261.941071,269.679413 275.302246,269.679413 288.909119,269.679413 
	C288.909119,248.405746 288.909119,227.455856 288.909119,205.509766 
z"/>
<path fill="#FEF9F2" opacity="1.000000" stroke="none" 
	d="
M163.921051,215.000015 
	C163.921066,207.051971 163.921066,199.603912 163.921066,191.968826 
	C190.097855,191.968826 215.812256,191.968826 241.184204,191.968826 
	C241.184204,208.101547 242.634186,224.187225 240.816452,239.894760 
	C238.554520,259.440674 219.431610,273.208344 200.417389,271.498230 
	C179.664398,269.631744 164.464432,253.816879 163.978882,233.481125 
	C163.835846,227.490372 163.933640,221.493866 163.921051,215.000015 
z"/>
<path fill="#FEF9F2" opacity="1.000000" stroke="none" 
	d="
M123.525757,189.186325 
	C144.663162,193.536530 157.131363,206.580780 159.440201,226.347488 
	C160.647232,236.681244 157.277374,247.399551 149.364883,256.835938 
	C146.656540,253.871201 144.090820,250.872604 141.288986,248.113800 
	C140.471466,247.308853 138.980713,247.187607 137.798553,246.752960 
	C138.197266,247.932678 138.260605,249.444641 139.047943,250.239319 
	C145.144791,256.393036 151.384689,262.404846 157.569427,268.471741 
	C158.133026,269.024597 158.620346,269.655212 159.604416,270.774384 
	C157.814056,270.951874 156.599716,271.176392 155.385361,271.176605 
	C142.556595,271.178711 129.720551,271.411224 116.900719,271.060577 
	C96.391838,270.499603 80.253677,255.193954 77.524216,234.194016 
	C75.085938,215.434357 87.477501,196.416016 106.338501,190.962448 
	C111.651352,189.426254 117.485626,189.693375 123.525757,189.186325 
z"/>
<path fill="#FEF9F2" opacity="1.000000" stroke="none" 
	d="
M295.209900,265.774414 
	C295.209839,241.036880 295.209839,216.776001 295.209839,192.244720 
	C308.350922,192.244720 321.096375,192.244720 334.221191,192.244720 
	C334.221191,204.988831 334.221191,217.754913 334.221191,230.867752 
	C341.526917,230.867752 348.469147,230.867752 355.702789,230.867752 
	C355.702789,243.937653 355.702789,256.662537 355.702789,270.002716 
	C353.872437,270.002716 351.946320,270.002716 350.020203,270.002716 
	C333.044373,270.002686 316.067993,269.935028 299.093170,270.066650 
	C296.128937,270.089600 294.629913,269.441437 295.209900,265.774414 
z"/>
<path fill="#FEF9F2" opacity="1.000000" stroke="none" 
	d="
M387.988251,191.972122 
	C392.631714,191.972122 396.778015,191.972122 401.293457,191.972122 
	C401.293457,205.027252 401.293457,217.794662 401.293457,230.916077 
	C408.593933,230.916077 415.530975,230.916077 422.730835,230.916077 
	C422.730835,243.994308 422.730835,256.717041 422.730835,269.722229 
	C402.715668,269.722229 382.694885,269.722229 362.441589,269.722229 
	C362.441589,243.841049 362.441589,218.141449 362.441589,191.972122 
	C370.940369,191.972122 379.215729,191.972122 387.988251,191.972122 
z"/>
<path fill="#FDF8F1" opacity="1.000000" stroke="none" 
	d="
M288.909119,206.007874 
	C288.909119,227.455856 288.909119,248.405746 288.909119,269.679413 
	C275.302246,269.679413 261.941071,269.679413 248.350494,269.679413 
	C248.350494,243.852859 248.350494,218.148407 248.350494,192.207245 
	C261.802795,192.207245 275.049042,192.207245 288.909119,192.207245 
	C288.909119,196.652496 288.909119,201.081131 288.909119,206.007874 
z"/>
</svg>