<svg version="1.1" id="Layer_1" xmlns="http://www.w3.org/2000/svg" xmlns:xlink="http://www.w3.org/1999/xlink" x="0px" y="0px"
	 width="100%" viewBox="0 0 500 500" enable-background="new 0 0 500 500" xml:space="preserve">
<path fill="#121C22" opacity="1.000000" stroke="none" 
	d="
M279.000000,501.000000 
	C186.000015,501.000000 93.500046,501.000000 1.000050,501.000000 
	C1.000033,334.333405 1.000033,167.666794 1.000017,1.000139 
	C167.666565,1.000093 334.333130,1.000093 500.999756,1.000046 
	C500.999847,167.666519 500.999847,334.333038 500.999939,500.999786 
	C427.166656,501.000000 353.333344,501.000000 279.000000,501.000000 
M163.920670,215.500000 
	C163.933319,221.493820 163.835251,227.490280 163.978760,233.480957 
	C164.465912,253.820114 179.658737,269.627563 200.417435,271.498657 
	C219.428757,273.212219 238.554642,259.441376 240.816025,239.894455 
	C242.633240,224.186966 241.183701,208.101547 241.183701,191.968933 
	C215.812790,191.968933 190.098511,191.968933 163.920685,191.968933 
	C163.920685,199.603577 163.920685,207.051804 163.920670,215.500000 
M123.080734,189.133057 
	C117.485672,189.693436 111.651718,189.427353 106.338615,190.963165 
	C87.478004,196.415024 75.082771,215.438095 77.524353,234.193756 
	C80.258942,255.200302 96.390045,270.499542 116.900375,271.060486 
	C129.720078,271.411072 142.556015,271.178619 155.384659,271.176392 
	C156.598969,271.176178 157.813263,270.951355 159.603363,270.773651 
	C158.618973,269.654724 158.131271,269.024384 157.567627,268.471436 
	C151.383133,262.404449 145.143463,256.392426 139.046951,250.238495 
	C138.259857,249.443985 138.197327,247.931625 137.799149,246.751801 
	C138.981384,247.187149 140.472015,247.309326 141.289825,248.114716 
	C144.091553,250.873840 146.657211,253.872665 149.506729,256.992279 
	C157.332565,247.334671 160.586838,237.438507 159.391632,226.352386 
	C157.259079,206.571991 144.654266,193.529144 123.080734,189.133057 
M295.208374,266.251282 
	C294.628448,269.442200 296.128876,270.089478 299.092346,270.066528 
	C316.066986,269.935089 333.043152,270.002625 350.018799,270.002655 
	C351.944977,270.002655 353.871124,270.002686 355.702576,270.002686 
	C355.702576,256.662720 355.702576,243.938126 355.702576,230.867493 
	C348.469208,230.867493 341.527130,230.867493 334.220612,230.867493 
	C334.220612,217.754211 334.220612,204.988647 334.220612,192.245575 
	C321.094727,192.245575 308.349426,192.245575 295.208252,192.245575 
	C295.208252,216.776718 295.208252,241.037323 295.208374,266.251282 
M387.491058,191.972855 
	C379.215637,191.972855 370.940216,191.972855 362.440369,191.972855 
	C362.440369,218.140808 362.440369,243.840027 362.440369,269.722839 
	C382.692780,269.722839 402.713409,269.722839 422.731201,269.722839 
	C422.731201,256.718567 422.731201,243.996033 422.731201,230.916962 
	C415.532410,230.916962 408.595886,230.916962 401.294067,230.916962 
	C401.294067,217.794937 401.294067,205.027908 401.294067,191.972855 
	C396.776367,191.972855 392.630859,191.972855 387.491058,191.972855 
M288.908630,205.509796 
	C288.908630,201.081360 288.908630,196.652924 288.908630,192.208435 
	C275.047638,192.208435 261.801758,192.208435 248.350464,192.208435 
	C248.350464,218.149506 248.350464,243.853378 248.350464,269.678772 
	C261.941315,269.678772 275.301941,269.678772 288.908630,269.678772 
	C288.908630,248.404953 288.908630,227.455475 288.908630,205.509796 
z"/>
<path fill="#FEF9F2" opacity="1.000000" stroke="none" 
	d="
M163.920685,215.000015 
	C163.920685,207.051804 163.920685,199.603577 163.920685,191.968933 
	C190.098511,191.968933 215.812790,191.968933 241.183701,191.968933 
	C241.183701,208.101547 242.633240,224.186966 240.816025,239.894455 
	C238.554642,259.441376 219.428757,273.212219 200.417435,271.498657 
	C179.658737,269.627563 164.465912,253.820114 163.978760,233.480957 
	C163.835251,227.490280 163.933319,221.493820 163.920685,215.000015 
z"/>
<path fill="#FEF9F2" opacity="1.000000" stroke="none" 
	d="
M123.525742,189.186142 
	C144.654266,193.529144 157.259079,206.571991 159.391632,226.352386 
	C160.586838,237.438507 157.332565,247.334671 149.506729,256.992279 
	C146.657211,253.872665 144.091553,250.873840 141.289825,248.114716 
	C140.472015,247.309326 138.981384,247.187149 137.799149,246.751801 
	C138.197327,247.931625 138.259857,249.443985 139.046951,250.238495 
	C145.143463,256.392426 151.383133,262.404449 157.567627,268.471436 
	C158.131271,269.024384 158.618973,269.654724 159.603363,270.773651 
	C157.813263,270.951355 156.598969,271.176178 155.384659,271.176392 
	C142.556015,271.178619 129.720078,271.411072 116.900375,271.060486 
	C96.390045,270.499542 80.258942,255.200302 77.524353,234.193756 
	C75.082771,215.438095 87.478004,196.415024 106.338615,190.963165 
	C111.651718,189.427353 117.485672,189.693436 123.525742,189.186142 
z"/>
<path fill="#FEF9F2" opacity="1.000000" stroke="none" 
	d="
M295.208313,265.774597 
	C295.208252,241.037323 295.208252,216.776718 295.208252,192.245575 
	C308.349426,192.245575 321.094727,192.245575 334.220612,192.245575 
	C334.220612,204.988647 334.220612,217.754211 334.220612,230.867493 
	C341.527130,230.867493 348.469208,230.867493 355.702576,230.867493 
	C355.702576,243.938126 355.702576,256.662720 355.702576,270.002686 
	C353.871124,270.002686 351.944977,270.002655 350.018799,270.002655 
	C333.043152,270.002625 316.066986,269.935089 299.092346,270.066528 
	C296.128876,270.089478 294.628448,269.442200 295.208313,265.774597 
z"/>
<path fill="#FEF9F2" opacity="1.000000" stroke="none" 
	d="
M387.988220,191.972855 
	C392.630859,191.972855 396.776367,191.972855 401.294067,191.972855 
	C401.294067,205.027908 401.294067,217.794937 401.294067,230.916962 
	C408.595886,230.916962 415.532410,230.916962 422.731201,230.916962 
	C422.731201,243.996033 422.731201,256.718567 422.731201,269.722839 
	C402.713409,269.722839 382.692780,269.722839 362.440369,269.722839 
	C362.440369,243.840027 362.440369,218.140808 362.440369,191.972855 
	C370.940216,191.972855 379.215637,191.972855 387.988220,191.972855 
z"/>
<path fill="#FDF8F1" opacity="1.000000" stroke="none" 
	d="
M288.908630,206.007904 
	C288.908630,227.455475 288.908630,248.404953 288.908630,269.678772 
	C275.301941,269.678772 261.941315,269.678772 248.350464,269.678772 
	C248.350464,243.853378 248.350464,218.149506 248.350464,192.208435 
	C261.801758,192.208435 275.047638,192.208435 288.908630,192.208435 
	C288.908630,196.652924 288.908630,201.081360 288.908630,206.007904 
z"/>
</svg>